#N canvas 0 25 1440 847 10;
#X obj 283 725 print backward;
#X obj 180 575 loadbang;
#X msg 208 637 disconnect;
#X obj 321 642 list prepend send;
#X obj 321 663 list trim;
#X obj 210 692 netsend -u -b;
#X msg 182 607 connect bela.local 7562;
#X obj 584 299 line;
#X obj 660 298 line;
#X msg 660 276 0 \, 1 1500;
#X obj 584 343 oscformat parameters;
#X obj 586 321 pack f f f, f 26;
#X obj 737 298 line;
#X obj 847 417 oscformat lfos;
#X obj 846 291 osc~ 0.1;
#X obj 916 291 osc~ 0.3;
#X obj 985 291 osc~ 0.6;
#X obj 846 361 snapshot~;
#X obj 916 361 snapshot~;
#X obj 985 361 snapshot~;
#X obj 847 386 pack f f f, f 26;
#X obj 903 238 metro 100;
#X obj 903 215 tgl 15 0 empty empty empty 17 7 0 10 #fcfcfc #000000 #000000 0 1;
#X obj 985 311 +~ 1;
#X obj 985 331 *~ 0.5;
#X obj 916 311 +~ 1;
#X obj 916 331 *~ 0.5;
#X obj 846 311 +~ 1;
#X obj 846 331 *~ 0.5;
#X obj 315 340 oscformat display-text;
#X obj 315 239 bng 15 250 50 0 empty empty empty 17 7 0 10 #fcfcfc #000000 #000000;
#X obj 315 315 pack s s s;
#X msg 474 288 symbol text;
#X obj 173 240 bng 15 250 50 0 empty empty empty 17 7 0 10 #fcfcfc #000000 #000000;
#X obj 173 260 random 100;
#X obj 33 240 bng 15 250 50 0 empty empty empty 17 7 0 10 #fcfcfc #000000 #000000;
#X obj 33 260 oscformat osc-test;
#X obj 585 235 bng 15 250 50 0 empty empty empty 17 7 0 10 #fcfcfc #000000 #000000;
#X msg 584 277 0 \, 1 4000;
#X msg 737 276 0 \, 1 2000;
#N canvas 0 23 687 515 (subpatch) 0;
#X array array1 128 float 5;
#A 0 0.685712 0.677379 0.669046 0.150005 0.145243 0.140481 0.135719 0.123814 0.11191 0.100005 0.0833386 0.0738149 0.0642912 0.053577 0.0428628 0.0285773 0.0214345 0.00714892 0.00714892 0.00714892 0.00714892 0.00714892 0.00714892 0.00714892 0.00714892 0.00714892 0.00714892 0.00714892 0.00714892 0.00714892 0.00714892 0.00816932 0.00918972 0.0102101 0.0112305 0.0122509 0.0132713 0.0142917 0.0169702 0.0196488 0.0223273 0.0250059 0.0276844 0.030363 0.0330415 0.0357201 0.0373073 0.0388946 0.0404819 0.0420692 0.0436565 0.0452438 0.0468311 0.0484183 0.0500056 0.0530668 0.056128 0.0591892 0.0622504 0.0653116 0.0683728 0.071434 0.0757196 0.0800053 0.084291 0.0885766 0.0928623 0.097148 0.101434 0.105719 0.110005 0.114291 0.119485 0.12468 0.129875 0.13507 0.140264 0.145459 0.150654 0.155849 0.161043 0.166238 0.171433 0.17929 0.187147 0.195004 0.202861 0.210718 0.218575 0.226432 0.234289 0.242146 0.250003 0.258337 0.26667 0.275003 0.283336 0.29167 0.300003 0.308336 0.316669 0.325003 0.333336 0.341669 0.350002 0.361227 0.372451 0.383676 0.3949 0.406124 0.417349 0.428573 0.450001 0.47143 0.492858 0.357149 0.357149 0.364292 0.364292 0.364292 0.364292 0.519047 0.523809 0.528571 0.535714 0.542857 0.549999 0.792854;
#X coords 0 0 127 1 200 140 1 0 0;
#X restore 1150 449 graph;
#X obj 1277 280 array get array1;
#X obj 1119 384 oscformat waveform;
#X obj 1296 230 tgl 15 0 empty empty empty 17 7 0 10 #fcfcfc #000000 #000000 0 1;
#X obj 1275 370 tabwrite~ array1;
#X obj 1326 345 *~ 0.5;
#X obj 1326 325 +~ 1;
#X obj 1119 331 pack f f f f f;
#X msg 1117 280 0.4;
#X msg 1137 300 0.2;
#X msg 1157 280 0.7;
#X msg 1177 301 0.1;
#X msg 1197 279 0.9;
#X obj 1326 304 osc~ 400.1;
#X obj 1296 254 metro 100;
#X obj 174 307 oscformat number;
#X msg 315 288 symbol show;
#X obj 315 259 t b b b;
#X obj 903 258 t b b b;
#X obj 739 228 loadbang;
#X msg 739 248 50;
#X obj 1124 251 t b b b b b;
#X obj 1124 227 bng 15 250 50 0 empty empty empty 17 7 0 10 #fcfcfc #000000 #000000;
#X text 590 7 ............................;
#X text 590 17 . ____ ._____ _ .......___ .;
#X text 590 27 .| __ )| ____| |....../ _ |.;
#X text 590 47 .| |_) | |___| |___ / ___ |.;
#X text 590 57 .|____/|_____|_____/_/..._|.io;
#X text 590 67 ............................;
#X text 590 37 .| __ || __|.| |...../ _| |.;
#X text 20 28 Send OSC messages to Bela for OLED Screen;
#X text 20 38 =========================================;
#X text 33 200 osc-test;
#X text 172 200 number;
#X text 312 200 display-text;
#X text 582 200 parameters;
#X text 842 200 lfos;
#X text 1122 200 waveform;
#X text 63 645 send OSC to Bela;
#X obj 508 605 bng 15 250 50 0 empty empty empty 17 7 0 10 #fcfcfc #000000 #000000;
#X msg 395 288 symbol some;
#X msg 490 662 symbol Frequency;
#X msg 598 663 symbol Hertz;
#X obj 490 739 oscformat parameterChange_bipolar;
#X obj 383 399 bng 15 250 50 0 empty empty empty 17 7 0 10 #fcfcfc #000000 #000000;
#X msg 365 456 symbol Frequency;
#X obj 365 533 oscformat parameterChange_unipolar;
#X obj 732 467 bng 15 250 50 0 empty empty empty 17 7 0 10 #fcfcfc #000000 #000000;
#X msg 859 523 40;
#X obj 715 554 pack s i;
#X obj 711 585 oscformat preset;
#X obj 930 467 bng 15 250 50 0 empty empty empty 17 7 0 10 #fcfcfc #000000 #000000;
#X obj 913 554 pack s i;
#X msg 912 524 symbol Modulation;
#X obj 909 585 oscformat parameterChange_button;
#X obj 915 673 bng 15 250 50 0 empty empty empty 17 7 0 10 #fcfcfc #000000 #000000;
#X obj 894 791 oscformat parameterChange_choice;
#X msg 897 730 symbol SliceLength;
#X msg 1022 717 symbol 1/16;
#X obj 1141 747 bng 15 250 50 0 empty empty empty 17 7 0 10 #fcfcfc #000000 #000000;
#X obj 1120 865 oscformat menupage;
#X obj 1124 834 pack s s s s;
#X msg 1119 791 symbol PotBehaviour;
#X msg 1251 729 symbol JUMP;
#X msg 1265 765 symbol CATCH;
#X msg 1296 802 symbol RELATIVE;
#X msg 714 524 symbol MTDGIRLSM;
#X msg 1057 523 0;
#X msg 473 457 symbol Hertz;
#X obj 477 506 pack s s f f, f 26;
#X msg 563 462 40;
#X msg 605 459 0.4;
#X obj 602 712 pack s s f f, f 26;
#X msg 688 668 50;
#X msg 730 665 0.75;
#X obj 898 760 pack s s;
#X connect 1 0 6 0;
#X connect 2 0 5 0;
#X connect 3 0 4 0;
#X connect 4 0 5 0;
#X connect 5 1 0 0;
#X connect 6 0 5 0;
#X connect 7 0 11 0;
#X connect 8 0 11 1;
#X connect 9 0 8 0;
#X connect 10 0 3 0;
#X connect 11 0 10 0;
#X connect 12 0 11 2;
#X connect 13 0 3 0;
#X connect 14 0 27 0;
#X connect 15 0 25 0;
#X connect 16 0 23 0;
#X connect 17 0 20 0;
#X connect 18 0 20 1;
#X connect 19 0 20 2;
#X connect 20 0 13 0;
#X connect 21 0 58 0;
#X connect 22 0 21 0;
#X connect 23 0 24 0;
#X connect 24 0 19 0;
#X connect 25 0 26 0;
#X connect 26 0 18 0;
#X connect 27 0 28 0;
#X connect 28 0 17 0;
#X connect 29 0 3 0;
#X connect 30 0 57 0;
#X connect 31 0 29 0;
#X connect 32 0 31 2;
#X connect 33 0 34 0;
#X connect 34 0 55 0;
#X connect 35 0 36 0;
#X connect 36 0 3 0;
#X connect 37 0 38 0;
#X connect 37 0 9 0;
#X connect 37 0 39 0;
#X connect 38 0 7 0;
#X connect 39 0 12 0;
#X connect 41 0 42 0;
#X connect 42 0 3 0;
#X connect 43 0 54 0;
#X connect 45 0 44 0;
#X connect 46 0 45 0;
#X connect 47 0 42 0;
#X connect 48 0 47 0;
#X connect 49 0 47 1;
#X connect 50 0 47 2;
#X connect 51 0 47 3;
#X connect 52 0 47 4;
#X connect 53 0 46 0;
#X connect 54 0 44 0;
#X connect 54 0 41 0;
#X connect 55 0 3 0;
#X connect 56 0 31 0;
#X connect 57 0 56 0;
#X connect 57 1 80 0;
#X connect 57 2 32 0;
#X connect 58 0 17 0;
#X connect 58 1 18 0;
#X connect 58 2 19 0;
#X connect 59 0 60 0;
#X connect 60 0 12 2;
#X connect 60 0 8 2;
#X connect 60 0 7 2;
#X connect 61 0 48 0;
#X connect 61 1 49 0;
#X connect 61 2 50 0;
#X connect 61 3 51 0;
#X connect 61 4 52 0;
#X connect 62 0 61 0;
#X connect 79 0 81 0;
#X connect 79 0 82 0;
#X connect 79 0 113 0;
#X connect 79 0 114 0;
#X connect 80 0 31 1;
#X connect 81 0 112 0;
#X connect 82 0 112 1;
#X connect 83 0 3 0;
#X connect 84 0 85 0;
#X connect 84 0 108 0;
#X connect 84 0 110 0;
#X connect 84 0 111 0;
#X connect 85 0 109 0;
#X connect 86 0 3 0;
#X connect 87 0 106 0;
#X connect 87 0 88 0;
#X connect 88 0 89 1;
#X connect 89 0 90 0;
#X connect 90 0 3 0;
#X connect 91 0 93 0;
#X connect 91 0 107 0;
#X connect 92 0 94 0;
#X connect 93 0 92 0;
#X connect 94 0 3 0;
#X connect 95 0 97 0;
#X connect 95 0 98 0;
#X connect 96 0 3 0;
#X connect 97 0 115 0;
#X connect 98 0 115 1;
#X connect 99 0 102 0;
#X connect 99 0 103 0;
#X connect 99 0 104 0;
#X connect 99 0 105 0;
#X connect 100 0 3 0;
#X connect 101 0 100 0;
#X connect 102 0 101 0;
#X connect 103 0 101 1;
#X connect 104 0 101 2;
#X connect 105 0 101 3;
#X connect 106 0 89 0;
#X connect 107 0 92 1;
#X connect 108 0 109 1;
#X connect 109 0 86 0;
#X connect 110 0 109 2;
#X connect 111 0 109 3;
#X connect 112 0 83 0;
#X connect 113 0 112 2;
#X connect 114 0 112 3;
#X connect 115 0 96 0;
